# xmcd
#
# Track frame offsets: 
#        150
#        25578
#        50498
#        66067
#        82573
#        103425
#        117447
#        142237
#        165488
#        191194
#        215425
#        234111
#        253169
#        274708
#
# Disc length: 3938 seconds
#
# Revision: 3
# Processed by: cddbd v1.5.2PL0 Copyright (c) Steve Scherf et al.
# Submitted via: ExactAudioCopyFreeDBPlugin 1.0
#
DISCID=c40f600e
DTITLE=Smoma - Songs To Remember
DYEAR=2004
DGENRE=Jazz
TTITLE0=Give Me The Night
TTITLE1=The Sweetest Taboo
TTITLE2=My Baby Just Cares For Me
TTITLE3=Summertime
TTITLE4=Like A Chameleon
TTITLE5=Ain't No Sunshine
TTITLE6=Why Can't We Live Together
TTITLE7=Do It Again
TTITLE8=Inner City Blues
TTITLE9=Georgy Porgy
TTITLE10=Change Your Mind
TTITLE11=Sing It Back
TTITLE12=Give Me The Night (House Version)
TTITLE13=Change Your Mind (Cool Version)
EXTD=YEAR: 2004
EXTT0=
EXTT1=
EXTT2=
EXTT3=
EXTT4=
EXTT5=
EXTT6=
EXTT7=
EXTT8=
EXTT9=
EXTT10=
EXTT11=
EXTT12=
EXTT13=
PLAYORDER=
